PathFileType	4	(X/Y/Z)	1H_rest_slow_left.trc
DataRate	CameraRate	NumFrames	NumMarkers	Units	OrigDataRate	OrigDataStartFrame	OrigNumFrames
250.00	250.00	19	18	mm	250.00	6803	13604
Frame#	Time	c7	r_should	l_should	clavicle	r_upa	r_elb_l	r_elb_m	r_low	r_wri_l	r_wri_m	r_met	l_upa	l_elb_l	l_elb_m	l_low	l_wri_l	l_wri_m	l_met
	X1	Y1	Z1	X2	Y2	Z2	X3	Y3	Z3	X4	Y4	Z4	X5	Y5	Z5	X6	Y6	Z6	X7	Y7	Z7	X8	Y8	Z8	X9	Y9	Z9	X10	Y10	Z10	X11	Y11	Z11	X12	Y12	Z12	X13	Y13	Z13	X14	Y14	Z14	X15	Y15	Z15	X16	Y16	Z16	X17	Y17	Z17	X18	Y18	Z18
6803	27.20800	634.44696	1417.32080	262.06888	682.90582	1358.70715	420.18112	698.12152	1373.02979	97.71685	767.08698	1280.59338	257.77597	665.08398	1153.66003	491.71201	652.13367	1065.38989	512.51947	608.03076	1033.03271	439.21793	701.76935	889.34784	502.68423	729.63861	825.34332	476.05273	660.47821	804.78632	495.67682	758.99707	744.51385	507.39526	686.43073	1180.26562	33.69782	692.17316	1071.06470	23.36105	645.34137	1037.44751	99.45516	697.74451	897.42365	12.98122	717.11353	818.64240	35.64348	643.22595	809.71857	27.07013	725.89435	733.67072	0.74358
6804	27.21200	634.44543	1417.31641	262.04782	682.92047	1358.69556	420.14429	698.07007	1373.00574	97.67116	767.06750	1280.57373	257.72107	665.10394	1153.64380	491.65851	652.18127	1065.36938	512.44739	608.03943	1033.02502	439.15686	701.83911	889.34192	502.54501	729.69409	825.32349	475.83585	660.55505	804.76642	495.62271	759.22198	744.60364	507.20264	686.36841	1180.22900	33.68502	692.10303	1071.02539	23.36888	645.27258	1037.42078	99.47189	697.66650	897.37939	12.99847	717.02808	818.59216	35.67047	643.13055	809.71051	27.08681	725.76978	733.58167	0.80470
6805	27.21600	634.44122	1417.31421	262.02567	682.93262	1358.67883	420.10440	698.01428	1372.98193	97.62492	767.04590	1280.55334	257.66241	665.12799	1153.62488	491.60675	652.22345	1065.34314	512.37170	608.05359	1033.00488	439.09579	701.91370	889.33124	502.39731	729.75177	825.29559	475.61328	660.63861	804.74475	495.57352	759.45129	744.69067	507.00497	686.30756	1180.18909	33.67362	692.03796	1070.98291	23.37200	645.20636	1037.38501	99.49464	697.59521	897.33228	13.01848	716.94720	818.54370	35.69358	643.02118	809.70978	27.10550	725.63995	733.48889	0.86365
6806	27.22000	634.43896	1417.30908	261.99390	682.94611	1358.66248	420.06180	697.95990	1372.95654	97.57227	767.02704	1280.53430	257.60468	665.15979	1153.60400	491.55392	652.26556	1065.31250	512.28986	608.06586	1032.97778	439.03415	701.99231	889.32422	502.24149	729.80475	825.27032	475.38589	660.72839	804.72559	495.53525	759.68085	744.77258	506.80386	686.25446	1180.14368	33.66383	691.98010	1070.93933	23.37780	645.13892	1037.34717	99.51208	697.52692	897.28485	13.03541	716.86908	818.49451	35.71487	642.92358	809.69666	27.11800	725.51129	733.39691	0.92003
6807	27.22400	634.44269	1417.30334	261.96460	682.95984	1358.64734	420.01456	697.90729	1372.92651	97.51961	767.01123	1280.51965	257.54608	665.19269	1153.58313	491.49478	652.31628	1065.27930	512.21112	608.08466	1032.95020	438.97122	702.07745	889.31445	502.07819	729.86060	825.23834	475.14203	660.82977	804.70374	495.50003	759.91077	744.85065	506.60980	686.20612	1180.09814	33.65176	691.93225	1070.89233	23.38722	645.08661	1037.31299	99.52839	697.45911	897.23669	13.04936	716.78986	818.44055	35.72911	642.82806	809.68927	27.12906	725.38660	733.30432	0.96627
6808	27.22800	634.45404	1417.29944	261.93240	682.98047	1358.63306	419.96283	697.85577	1372.89490	97.46643	766.99689	1280.49634	257.48758	665.23456	1153.55884	491.42719	652.37476	1065.24414	512.12646	608.11060	1032.91797	438.90521	702.16644	889.30121	501.90179	729.91718	825.20697	474.89700	660.94629	804.69806	495.46628	760.14636	744.92010	506.41675	686.16229	1180.04822	33.64174	691.89075	1070.84485	23.39663	645.06232	1037.26636	99.55634	697.38940	897.18134	13.06179	716.71002	818.38226	35.73891	642.72717	809.68225	27.14469	725.26904	733.20587	1.00753
6809	27.23200	634.46448	1417.29993	261.88998	683.00507	1358.62109	419.91800	697.80975	1372.86157	97.42210	766.98413	1280.47290	257.42743	665.28723	1153.53296	491.35764	652.44330	1065.20935	512.03790	608.14105	1032.88293	438.83743	702.26495	889.29333	501.71710	729.97546	825.16766	474.65359	661.06976	804.70404	495.45120	760.38330	744.98694	506.22165	686.12457	1179.99609	33.63230	691.85919	1070.79712	23.40980	645.04370	1037.21069	99.58510	697.31604	897.12646	13.06496	716.63068	818.31903	35.75505	642.63104	809.67322	27.15921	725.15448	733.10907	1.05174
6810	27.23600	634.47461	1417.30090	261.84384	683.03180	1358.60681	419.87234	697.77112	1372.82947	97.37253	766.96960	1280.44556	257.36014	665.34094	1153.51245	491.29190	652.51758	1065.17981	511.94669	608.17224	1032.84167	438.77637	702.37213	889.28650	501.53189	730.03320	825.12500	474.41882	661.19287	804.70691	495.43921	760.61035	745.04578	506.02710	686.09558	1179.95117	33.62150	691.83221	1070.75281	23.42234	645.02588	1037.16614	99.61121	697.23718	897.06891	13.06893	716.55121	818.26221	35.76572	642.54193	809.65717	27.17609	725.03424	733.01807	1.09855
6811	27.24000	634.48047	1417.29895	261.81134	683.05463	1358.59631	419.82639	697.72876	1372.79932	97.32371	766.95239	1280.42078	257.29486	665.38776	1153.49207	491.22253	652.58319	1065.16187	511.86060	608.19812	1032.80884	438.71918	702.48224	889.28137	501.34152	730.08899	825.08661	474.19507	661.31274	804.71368	495.41837	760.82526	745.11401	505.83698	686.06256	1179.91174	33.61278	691.80457	1070.70850	23.42911	645.00488	1037.12671	99.63262	697.15466	897.01331	13.07485	716.46344	818.20502	35.77893	642.45544	809.62848	27.19366	724.90991	732.92957	1.14666
6812	27.24400	634.48273	1417.29810	261.77982	683.07349	1358.59070	419.77924	697.68542	1372.77148	97.27056	766.93378	1280.40125	257.23169	665.42810	1153.47217	491.15646	652.64728	1065.14148	511.77634	608.21802	1032.78137	438.66586	702.58331	889.27618	501.15891	730.14380	825.05377	473.98007	661.42456	804.70667	495.39468	761.02771	745.19751	505.65295	686.02649	1179.87354	33.60447	691.76984	1070.66736	23.43781	644.96637	1037.09729	99.66147	697.07208	896.96637	13.08028	716.37292	818.14618	35.79453	642.37036	809.59644	27.21262	724.77948	732.83563	1.19209
6813	27.24800	634.48816	1417.29468	261.74100	683.08801	1358.58325	419.73178	697.63904	1372.74609	97.22002	766.90680	1280.38074	257.17123	665.47296	1153.45288	491.09274	652.70935	1065.11926	511.69794	608.23694	1032.75598	438.60901	702.67542	889.26648	500.99045	730.19586	825.02136	473.77216	661.53021	804.69775	495.37021	761.21594	745.28906	505.47766	685.99402	1179.83789	33.59561	691.72858	1070.62549	23.44682	644.93286	1037.06433	99.69315	696.99011	896.92041	13.08593	716.28131	818.08875	35.81380	642.28723	809.56415	27.23664	724.64850	732.74127	1.24094
6814	27.25200	634.48914	1417.28833	261.70819	683.10272	1358.57593	419.68304	697.59857	1372.71875	97.17242	766.87671	1280.35742	257.10709	665.51068	1153.43689	491.03033	652.76538	1065.10083	511.62415	608.24805	1032.73389	438.56320	702.76080	889.25696	500.83160	730.24231	824.98676	473.57083	661.63287	804.68573	495.34073	761.38947	745.39661	505.31851	685.96143	1179.80127	33.58668	691.68146	1070.57983	23.45091	644.90002	1037.02832	99.71857	696.91016	896.87335	13.09610	716.18994	818.03534	35.83746	642.19885	809.52954	27.27584	724.51996	732.65839	1.29135
6815	27.25600	634.49036	1417.28101	261.67816	683.12201	1358.57300	419.63901	697.55627	1372.69458	97.12669	766.84070	1280.33264	257.04327	665.55597	1153.42297	490.97107	652.82874	1065.08179	511.55484	608.26556	1032.71130	438.51422	702.84229	889.24060	500.68396	730.28760	824.96271	473.37207	661.73334	804.66650	495.30737	761.55450	745.51093	505.16446	685.92200	1179.76416	33.57261	691.62903	1070.53699	23.45093	644.85931	1037.00085	99.73304	696.83405	896.83057	13.11048	716.10065	817.98639	35.85453	642.12268	809.48212	27.31785	724.38672	732.57861	1.34322
6816	27.26000	634.49200	1417.27380	261.64624	683.13904	1358.57483	419.59293	697.51538	1372.67126	97.08055	766.81586	1280.31775	256.98438	665.60840	1153.41248	490.91284	652.89844	1065.06604	511.48373	608.29047	1032.69678	438.47232	702.91516	889.22742	500.54706	730.33447	824.94330	473.17758	661.83026	804.65161	495.27072	761.71649	745.63239	505.01920	685.87567	1179.73132	33.55435	691.57721	1070.49683	23.45091	644.82007	1036.98254	99.75155	696.76093	896.78687	13.12164	716.01166	817.93762	35.87710	642.05176	809.43408	27.35725	724.25354	732.49127	1.39420
6817	27.26400	634.49323	1417.27051	261.61032	683.15704	1358.57227	419.54749	697.47736	1372.64563	97.03151	766.79590	1280.30347	256.93060	665.66254	1153.41187	490.84833	652.97308	1065.05493	511.41302	608.31555	1032.68323	438.42831	702.98486	889.22284	500.41467	730.38135	824.92914	472.99219	661.92615	804.64410	495.22495	761.86017	745.75256	504.88693	685.83020	1179.69934	33.53579	691.52557	1070.45703	23.44642	644.79004	1036.96326	99.77388	696.68677	896.75079	13.13134	715.92706	817.89062	35.90078	641.97650	809.38745	27.38967	724.12000	732.40491	1.44159
6818	27.26800	634.49780	1417.26978	261.57382	683.17957	1358.57007	419.50287	697.43555	1372.62537	96.98270	766.77777	1280.28467	256.87039	665.71515	1153.41516	490.78406	653.04401	1065.04724	511.34302	608.33337	1032.67700	438.37839	703.05261	889.21710	500.29568	730.42664	824.90894	472.82440	662.01208	804.63959	495.17297	761.99854	745.86646	504.77255	685.77673	1179.66748	33.51408	691.47272	1070.42175	23.43938	644.74463	1036.94080	99.79314	696.60388	896.71735	13.13698	715.84131	817.85168	35.92133	641.89612	809.34680	27.42548	723.98712	732.32782	1.48394
6819	27.27200	634.50415	1417.27515	261.53708	683.20050	1358.57178	419.44913	697.39508	1372.60083	96.94331	766.75989	1280.27087	256.80640	665.76599	1153.40967	490.72379	653.11768	1065.04468	511.26785	608.35107	1032.67603	438.32993	703.11737	889.20795	500.17728	730.46997	824.89307	472.66003	662.08783	804.63751	495.10849	762.13165	745.97919	504.66461	685.71344	1179.63525	33.49215	691.41510	1070.39062	23.43451	644.69312	1036.91919	99.80286	696.51642	896.68140	13.14475	715.75751	817.81915	35.93823	642.01685	809.34705	27.14297	723.85669	732.25342	1.52780
6820	27.27600	634.51105	1417.28308	261.49936	683.22260	1358.57507	419.39896	697.36133	1372.57837	96.90182	766.74432	1280.25793	256.74063	665.81299	1153.40588	490.66617	653.18317	1065.04517	511.19589	608.37109	1032.67151	438.28174	703.18652	889.20557	500.05859	730.51947	824.89038	472.50101	662.16278	804.63849	495.03073	762.25629	746.09039	504.55438	685.64905	1179.60303	33.46862	691.35187	1070.36023	23.42798	644.63458	1036.90552	99.80689	696.42944	896.65155	13.15091	715.67004	817.78967	35.95424	642.39038	809.38849	26.46539	723.73071	732.18958	1.56990
6821	27.28000	634.51526	1417.28467	261.46100	683.24475	1358.58618	419.35306	697.32672	1372.55884	96.85206	766.72559	1280.24390	256.67865	665.86285	1153.41223	490.61185	653.24469	1065.04431	511.12915	608.39362	1032.67444	438.23245	703.25519	889.21234	499.94742	730.56909	824.88751	472.35400	662.23456	804.64374	494.95752	762.37842	746.20032	504.45224	685.58368	1179.57922	33.43989	691.28290	1070.33704	23.41800	644.57349	1036.89282	99.81316	696.34302	896.62897	13.15866	715.58069	817.76239	35.97151	642.40649	809.38824	26.30993	723.60138	732.13000	1.61154
